solid ascii
  facet normal -0.000000e+000 0.000000e+000 1.000000e+000
    outer loop
      vertex   0.000000e+000 1.184656e+000 1.200000e+000
      vertex   0.000000e+000 -1.534449e-002 1.200000e+000
      vertex   5.000000e-002 1.184656e+000 1.200000e+000
    endloop
  endfacet
  facet normal -0.000000e+000 0.000000e+000 1.000000e+000
    outer loop
      vertex   5.000000e-002 1.184656e+000 1.200000e+000
      vertex   0.000000e+000 -1.534449e-002 1.200000e+000
      vertex   5.000000e-002 -1.534449e-002 1.200000e+000
    endloop
  endfacet
  facet normal -0.000000e+000 1.000000e+000 0.000000e+000
    outer loop
      vertex   0.000000e+000 1.184656e+000 0.000000e+000
      vertex   0.000000e+000 1.184656e+000 1.200000e+000
      vertex   5.000000e-002 1.184656e+000 0.000000e+000
    endloop
  endfacet
  facet normal 0.000000e+000 1.000000e+000 -0.000000e+000
    outer loop
      vertex   5.000000e-002 1.184656e+000 0.000000e+000
      vertex   0.000000e+000 1.184656e+000 1.200000e+000
      vertex   5.000000e-002 1.184656e+000 1.200000e+000
    endloop
  endfacet
  facet normal 0.000000e+000 0.000000e+000 -1.000000e+000
    outer loop
      vertex   0.000000e+000 -1.534449e-002 0.000000e+000
      vertex   0.000000e+000 1.184656e+000 0.000000e+000
      vertex   5.000000e-002 -1.534449e-002 0.000000e+000
    endloop
  endfacet
  facet normal 0.000000e+000 0.000000e+000 -1.000000e+000
    outer loop
      vertex   5.000000e-002 -1.534449e-002 0.000000e+000
      vertex   0.000000e+000 1.184656e+000 0.000000e+000
      vertex   5.000000e-002 1.184656e+000 0.000000e+000
    endloop
  endfacet
  facet normal 0.000000e+000 -1.000000e+000 0.000000e+000
    outer loop
      vertex   0.000000e+000 -1.534449e-002 1.200000e+000
      vertex   0.000000e+000 -1.534449e-002 0.000000e+000
      vertex   5.000000e-002 -1.534449e-002 1.200000e+000
    endloop
  endfacet
  facet normal 0.000000e+000 -1.000000e+000 -0.000000e+000
    outer loop
      vertex   5.000000e-002 -1.534449e-002 1.200000e+000
      vertex   0.000000e+000 -1.534449e-002 0.000000e+000
      vertex   5.000000e-002 -1.534449e-002 0.000000e+000
    endloop
  endfacet
  facet normal 1.000000e+000 -0.000000e+000 0.000000e+000
    outer loop
      vertex   5.000000e-002 -1.534449e-002 1.200000e+000
      vertex   5.000000e-002 -1.534449e-002 0.000000e+000
      vertex   5.000000e-002 1.184656e+000 1.200000e+000
    endloop
  endfacet
  facet normal 1.000000e+000 -0.000000e+000 0.000000e+000
    outer loop
      vertex   5.000000e-002 1.184656e+000 1.200000e+000
      vertex   5.000000e-002 -1.534449e-002 0.000000e+000
      vertex   5.000000e-002 1.184656e+000 0.000000e+000
    endloop
  endfacet
  facet normal -1.000000e+000 0.000000e+000 0.000000e+000
    outer loop
      vertex   0.000000e+000 -1.534449e-002 0.000000e+000
      vertex   0.000000e+000 -1.534449e-002 1.200000e+000
      vertex   0.000000e+000 1.184656e+000 0.000000e+000
    endloop
  endfacet
  facet normal -1.000000e+000 0.000000e+000 0.000000e+000
    outer loop
      vertex   0.000000e+000 1.184656e+000 0.000000e+000
      vertex   0.000000e+000 -1.534449e-002 1.200000e+000
      vertex   0.000000e+000 1.184656e+000 1.200000e+000
    endloop
  endfacet
endsolid
