solid OpenSCAD_Model
  facet normal 2.22045e-16 -4.93038e-32 -1
    outer loop
      vertex 0 0 0
      vertex 3.33067e-14 150 0
      vertex 400 -8.88178e-14 8.88178e-14
    endloop
  endfacet
  facet normal 2.22045e-16 -4.93038e-32 -1
    outer loop
      vertex 400 -8.88178e-14 8.88178e-14
      vertex 3.33067e-14 150 0
      vertex 400 150 8.88178e-14
    endloop
  endfacet
  facet normal -1 2.22045e-16 -2.22045e-16
    outer loop
      vertex 3.15303e-14 150 8
      vertex 3.33067e-14 150 0
      vertex 1.77636e-15 16 8
    endloop
  endfacet
  facet normal -1 2.22045e-16 -2.22045e-16
    outer loop
      vertex 0 0 0
      vertex -3.33067e-14 0 150
      vertex -1.77636e-15 8 16
    endloop
  endfacet
  facet normal -1 2.22045e-16 -2.22045e-16
    outer loop
      vertex 0 0 0
      vertex -1.77636e-15 8 16
      vertex 1.77636e-15 16 8
    endloop
  endfacet
  facet normal -1 2.22045e-16 -2.22045e-16
    outer loop
      vertex 0 0 0
      vertex 1.77636e-15 16 8
      vertex 3.33067e-14 150 0
    endloop
  endfacet
  facet normal -1 2.22045e-16 -2.22045e-16
    outer loop
      vertex -1.77636e-15 8 16
      vertex -3.33067e-14 0 150
      vertex -3.15303e-14 8 150
    endloop
  endfacet
  facet normal -2.22045e-16 -1 -4.93038e-32
    outer loop
      vertex -3.33067e-14 0 150
      vertex 0 0 0
      vertex 400 -8.88178e-14 8.88178e-14
    endloop
  endfacet
  facet normal -2.22045e-16 -1 -4.93038e-32
    outer loop
      vertex 400 -8.88178e-14 150
      vertex -3.33067e-14 0 150
      vertex 400 -8.88178e-14 8.88178e-14
    endloop
  endfacet
  facet normal 1 -2.22045e-16 2.22045e-16
    outer loop
      vertex 400 16 8
      vertex 400 -8.88178e-14 8.88178e-14
      vertex 400 150 8.88178e-14
    endloop
  endfacet
  facet normal 1 -2.22045e-16 2.22045e-16
    outer loop
      vertex 400 8 16
      vertex 400 -8.88178e-14 8.88178e-14
      vertex 400 16 8
    endloop
  endfacet
  facet normal 1 -2.22045e-16 2.22045e-16
    outer loop
      vertex 400 -8.88178e-14 150
      vertex 400 -8.88178e-14 8.88178e-14
      vertex 400 8 16
    endloop
  endfacet
  facet normal 1 -2.22045e-16 2.22045e-16
    outer loop
      vertex 400 150 8
      vertex 400 16 8
      vertex 400 150 8.88178e-14
    endloop
  endfacet
  facet normal 1 -2.22045e-16 2.22045e-16
    outer loop
      vertex 400 8 16
      vertex 400 8 150
      vertex 400 -8.88178e-14 150
    endloop
  endfacet
  facet normal 2.22045e-16 1 4.93038e-32
    outer loop
      vertex 3.33067e-14 150 0
      vertex 3.15303e-14 150 8
      vertex 400 150 8.88178e-14
    endloop
  endfacet
  facet normal 2.22045e-16 1 4.93038e-32
    outer loop
      vertex 400 150 8.88178e-14
      vertex 3.15303e-14 150 8
      vertex 150 150 8
    endloop
  endfacet
  facet normal 2.22045e-16 1 4.93038e-32
    outer loop
      vertex 165 150 8
      vertex 150 150 8
      vertex 150 150 83
    endloop
  endfacet
  facet normal 2.22045e-16 1 4.93038e-32
    outer loop
      vertex 400 150 8.88178e-14
      vertex 150 150 8
      vertex 165 150 8
    endloop
  endfacet
  facet normal 2.22045e-16 1 4.93038e-32
    outer loop
      vertex 400 150 8
      vertex 400 150 8.88178e-14
      vertex 165 150 8
    endloop
  endfacet
  facet normal 2.22045e-16 1 4.93038e-32
    outer loop
      vertex 165 150 8
      vertex 150 150 83
      vertex 165 150 83
    endloop
  endfacet
  facet normal -2.22045e-16 4.93038e-32 1
    outer loop
      vertex 165 75 8
      vertex 1.77636e-15 16 8
      vertex 400 16 8
    endloop
  endfacet
  facet normal -2.22045e-16 4.93038e-32 1
    outer loop
      vertex 150 75 8
      vertex 150 150 8
      vertex 3.15303e-14 150 8
    endloop
  endfacet
  facet normal -2.22045e-16 4.93038e-32 1
    outer loop
      vertex 400 150 8
      vertex 165 150 8
      vertex 400 16 8
    endloop
  endfacet
  facet normal -2.22045e-16 4.93038e-32 1
    outer loop
      vertex 150 75 8
      vertex 1.77636e-15 16 8
      vertex 165 75 8
    endloop
  endfacet
  facet normal -2.22045e-16 4.93038e-32 1
    outer loop
      vertex 3.15303e-14 150 8
      vertex 1.77636e-15 16 8
      vertex 150 75 8
    endloop
  endfacet
  facet normal -2.22045e-16 4.93038e-32 1
    outer loop
      vertex 165 150 8
      vertex 165 75 8
      vertex 400 16 8
    endloop
  endfacet
  facet normal 0 0.707107 0.707107
    outer loop
      vertex -1.77636e-15 8 16
      vertex 400 8 16
      vertex 1.77636e-15 16 8
    endloop
  endfacet
  facet normal 0 0.707107 0.707107
    outer loop
      vertex 1.77636e-15 16 8
      vertex 400 8 16
      vertex 400 16 8
    endloop
  endfacet
  facet normal 2.22045e-16 1 4.93038e-32
    outer loop
      vertex -1.77636e-15 8 16
      vertex -3.15303e-14 8 150
      vertex 400 8 16
    endloop
  endfacet
  facet normal 2.22045e-16 1 4.93038e-32
    outer loop
      vertex 400 8 16
      vertex -3.15303e-14 8 150
      vertex 400 8 150
    endloop
  endfacet
  facet normal -2.22045e-16 4.93038e-32 1
    outer loop
      vertex -3.15303e-14 8 150
      vertex -3.33067e-14 0 150
      vertex 400 -8.88178e-14 150
    endloop
  endfacet
  facet normal -2.22045e-16 4.93038e-32 1
    outer loop
      vertex 400 8 150
      vertex -3.15303e-14 8 150
      vertex 400 -8.88178e-14 150
    endloop
  endfacet
  facet normal 1 -2.22045e-16 2.22045e-16
    outer loop
      vertex 165 75 83
      vertex 165 75 8
      vertex 165 150 8
    endloop
  endfacet
  facet normal 1 -2.22045e-16 2.22045e-16
    outer loop
      vertex 165 150 83
      vertex 165 75 83
      vertex 165 150 8
    endloop
  endfacet
  facet normal -2.22045e-16 4.93038e-32 1
    outer loop
      vertex 150 150 83
      vertex 150 75 83
      vertex 165 75 83
    endloop
  endfacet
  facet normal -2.22045e-16 4.93038e-32 1
    outer loop
      vertex 165 150 83
      vertex 150 150 83
      vertex 165 75 83
    endloop
  endfacet
  facet normal -1 2.22045e-16 -2.22045e-16
    outer loop
      vertex 150 75 8
      vertex 150 75 83
      vertex 150 150 8
    endloop
  endfacet
  facet normal -1 2.22045e-16 -2.22045e-16
    outer loop
      vertex 150 150 8
      vertex 150 75 83
      vertex 150 150 83
    endloop
  endfacet
  facet normal -2.22045e-16 -1 -4.93038e-32
    outer loop
      vertex 150 75 83
      vertex 150 75 8
      vertex 165 75 8
    endloop
  endfacet
  facet normal -2.22045e-16 -1 -4.93038e-32
    outer loop
      vertex 165 75 83
      vertex 150 75 83
      vertex 165 75 8
    endloop
  endfacet
endsolid OpenSCAD_Model
